<svg width="1086" height="800" viewBox="0 0 1086 800" fill="none" xmlns="http://www.w3.org/2000/svg">
<path d="M624 483L589.5 409L605 396L601 388.5L641.5 371L684.5 390.5L690.5 387L692 392.5L686 395L687.5 397H692L708 434.5L705 437.5L708 443.5L683.5 454.5L677.5 439L697.5 430V428L690.5 430L689.5 425.5L697.5 422L696 417L628.5 447.5L630.5 451L662 437.5L674 461.5L624 483Z" fill="#D7D7D7"/>
<path d="M755.5 478L753 469.5L760.5 463L772.5 458.5L782 460L784 468H791L805.5 512.5L792.5 514.5L782 484L767.5 487.5L771.5 510.5L758.5 512.5L753 480.5L755.5 478Z" fill="#D7D7D7"/>
<path d="M740.5 392L748.5 393.5L758 364H768L770.5 353.5L792 361L787.5 374.5L790 376.5L786.5 382L789 384.5L786.5 393.5L788.5 395.5L780.5 403.5L774 421.5L745 415L737.5 401L740.5 392Z" fill="#D7D7D7"/>
<path d="M559 298.5L506.5 394L476 378L529.5 283L559 298.5Z" fill="#D7D7D7"/>
<path d="M539 262.5L551 245L564 252V255.5L637.5 295L639 292L653 300.5L642 319.5L632 315L629 317.5L606 305L604 309.5L568 290.5L570.5 287L546 272L548 269.5L539 262.5Z" fill="#D7D7D7"/>
<path d="M438 480L433 462.5L457 413.5L468.5 420L450.5 450.5L459.5 476.5L471 488.5L465.5 496.5L438 480Z" fill="#712732"/>
<path d="M292 295L271 215.5L319.5 204.5L326 226.5L299 234.5L312.5 289.5L292 295Z" fill="#D7D7D7"/>
<path d="M295.5 381L311.5 339L344 348.5L350.5 345.5L374 352.5L382 348.5L387 357.5H394.5L399.5 370.5L387 389.5L392 400L382 411.5L377 414L295.5 381Z" fill="#D7D7D7"/>
<path d="M575.558 577.38L558.886 557.199L563.914 551.633L568.414 553.812L579.127 548.666L580.959 534.554L609.017 511.252L611.542 516.363L619.706 511.205L622.83 514.161L625.882 511.528L634.763 520.494L575.558 577.38Z" fill="#D7D7D7"/>
<path d="M308.5 298.5C313.167 295.667 325.4 296 337 320C338.167 324.5 345.2 334.6 364 339C382.8 343.4 430.167 365.5 451.5 376" stroke="#FEFEFE" stroke-width="5"/>
<path d="M639 353C643.5 357.667 658.6 368.6 675 373C683.664 375.325 691.167 379.346 698 385.933M782.5 521.5C787.5 522 811.5 517.5 814 508.5C816 501.3 805.17 484 803.5 470C797 415.5 737.5 465.5 723.5 429.5C715.417 408.715 707.334 394.93 698 385.933M698 385.933C706 383.577 724.9 380.279 736.5 385.933" stroke="#FEFEFE" stroke-width="5"/>
<path d="M639 339.5C653.333 327.833 676.5 300.6 652.5 291C628.5 281.4 571.833 251.667 546.5 238L525.5 275L606 319.5C611.333 321.667 623.9 329.4 627.5 339" stroke="#FEFEFE" stroke-width="5"/>
<path d="M374 530.5L515 253L561.5 184.5M561.5 184.5L582.5 49M561.5 184.5L739.5 151.5" stroke="#FEFEFE" stroke-width="10"/>
<path d="M478 502.5C488 508 512.8 512.4 532 486C556 453 571.882 430.5 581 415C586 406.5 606.5 356.5 625 351.5" stroke="#FEFEFE" stroke-width="5"/>
<path d="M633 338C637.694 338 641.5 341.806 641.5 346.5C641.5 351.194 637.694 355 633 355C628.306 355 624.5 351.194 624.5 346.5C624.5 341.806 628.306 338 633 338Z" stroke="#FEFEFE" stroke-width="5"/>
<path d="M446.5 499.5L444 535" stroke="#712732" stroke-dasharray="2 2"/>
<path d="M430.703 554.406V556.801H411.245V554.406H419.441V552.608H413.731V544.345H416.673V546.293H425.242V544.345H428.201V552.608H422.441V554.406H430.703ZM413.4 560.63V558.276H428.333V565.163H425.342V560.63H413.4ZM416.673 550.238H425.242V548.506H416.673V550.238ZM439.521 549.633C439.521 553.088 441.303 556.776 444.875 558.26L443.267 560.605C440.748 559.544 439.016 557.423 438.054 554.837C437.093 557.646 435.328 559.983 432.808 561.135L431.11 558.79C434.64 557.207 436.471 553.254 436.48 549.633V548.323H431.947V545.878H443.988V548.323H439.521V549.633ZM446.093 565.163V543.815H449.118V565.163H446.093ZM463.248 545.373V546.707C463.231 548.191 463.231 550.312 462.759 552.964L459.817 552.691C460.198 550.652 460.289 549.094 460.314 547.809H452.259V545.373H463.248ZM451.007 554.522C452.201 554.522 453.543 554.514 454.96 554.489V550.304H457.936V554.39C460.065 554.298 462.245 554.133 464.251 553.843L464.4 555.997C459.966 556.809 454.969 556.892 451.264 556.901L451.007 554.522ZM454.14 564.79V558.367H457.14V562.378H469.132V564.79H454.14ZM465.402 559.793V543.815H468.46V550.329H471.054V552.823H468.46V559.793H465.402ZM418.122 592.232C414.385 592.232 411.716 590.185 411.658 587.227H415.213C415.271 588.478 416.498 589.315 418.131 589.315C419.821 589.315 421.031 588.378 421.023 587.011C421.031 585.627 419.805 584.649 417.807 584.649H416.233V582.039H417.807C419.49 582.039 420.658 581.127 420.65 579.785C420.658 578.492 419.655 577.605 418.155 577.605C416.655 577.605 415.429 578.442 415.379 579.743H411.998C412.056 576.826 414.691 574.796 418.172 574.796C421.702 574.796 424.064 576.892 424.048 579.569C424.064 581.475 422.738 582.826 420.824 583.166V583.298C423.327 583.605 424.702 585.122 424.686 587.243C424.702 590.144 421.943 592.232 418.122 592.232ZM433.029 592.365C428.777 592.356 426.2 589.108 426.217 583.53C426.225 577.97 428.794 574.796 433.029 574.796C437.264 574.796 439.849 577.986 439.841 583.53C439.841 589.124 437.272 592.365 433.029 592.365ZM429.805 583.53C429.797 587.459 431.065 589.431 433.029 589.431C434.993 589.431 436.253 587.459 436.253 583.53C436.244 579.652 434.985 577.696 433.029 577.696C431.073 577.696 429.813 579.652 429.805 583.53ZM448.873 575.028V592H445.343V578.384H445.244L441.349 580.829V577.696L445.55 575.028H448.873ZM469.97 575.517V577.912H452.235V575.517H459.611V573.047H462.578V575.517H469.97ZM451.398 591.992V589.58H459.611V587.127C455.981 586.812 453.785 585.329 453.801 582.983C453.785 580.39 456.586 578.831 461.086 578.84C465.528 578.831 468.37 580.39 468.37 582.983C468.37 585.32 466.158 586.804 462.578 587.127V589.58H470.906V591.992H451.398ZM456.876 582.983C456.868 584.235 458.326 584.815 461.086 584.815C463.796 584.815 465.287 584.235 465.296 582.983C465.287 581.757 463.796 581.177 461.086 581.177C458.326 581.177 456.868 581.757 456.876 582.983Z" fill="#712732"/>
<path d="M314.238 377.238H301.564V376.243H307.298V374.619H303.166V370.033H312.657V371.017H304.381V373.624H312.746V374.619H308.492V376.243H314.238V377.238ZM303.088 380.751C303.088 380.225 303.278 379.775 303.657 379.403C304.041 379.028 304.591 378.742 305.309 378.547C306.031 378.352 306.89 378.254 307.884 378.254C308.875 378.254 309.727 378.352 310.442 378.547C311.16 378.742 311.709 379.028 312.088 379.403C312.471 379.775 312.665 380.225 312.669 380.751C312.665 381.282 312.471 381.733 312.088 382.105C311.709 382.481 311.162 382.766 310.448 382.961C309.733 383.157 308.878 383.256 307.884 383.26C306.886 383.256 306.028 383.157 305.309 382.961C304.591 382.766 304.041 382.481 303.657 382.105C303.278 381.733 303.088 381.282 303.088 380.751ZM304.337 380.751C304.333 381.072 304.471 381.348 304.751 381.58C305.035 381.808 305.444 381.982 305.978 382.099C306.512 382.221 307.147 382.28 307.884 382.276C308.617 382.28 309.249 382.221 309.779 382.099C310.313 381.982 310.722 381.808 311.006 381.58C311.293 381.348 311.438 381.072 311.442 380.751C311.438 380.435 311.293 380.16 311.006 379.928C310.722 379.696 310.313 379.519 309.779 379.398C309.249 379.276 308.617 379.215 307.884 379.215C307.147 379.215 306.512 379.276 305.978 379.398C305.444 379.519 305.035 379.696 304.751 379.928C304.471 380.16 304.333 380.435 304.337 380.751ZM321.851 372.785H314.879V371.779H317.762V369.801H318.989V371.779H321.851V372.785ZM315.387 376.873C315.383 376.265 315.508 375.724 315.762 375.249C316.02 374.77 316.376 374.396 316.829 374.127C317.286 373.858 317.799 373.724 318.37 373.724C318.945 373.724 319.459 373.858 319.912 374.127C320.368 374.396 320.726 374.77 320.983 375.249C321.241 375.724 321.372 376.265 321.376 376.873C321.372 377.488 321.241 378.037 320.983 378.519C320.726 379.002 320.368 379.379 319.912 379.652C319.459 379.921 318.945 380.055 318.37 380.055C317.799 380.055 317.286 379.921 316.829 379.652C316.376 379.379 316.02 379.002 315.762 378.519C315.508 378.037 315.383 377.488 315.387 376.873ZM316.47 376.873C316.47 377.282 316.551 377.646 316.713 377.967C316.875 378.287 317.1 378.538 317.387 378.718C317.678 378.899 318.006 378.987 318.37 378.983C318.735 378.987 319.063 378.899 319.354 378.718C319.645 378.538 319.871 378.287 320.033 377.967C320.199 377.643 320.282 377.278 320.282 376.873C320.282 376.471 320.199 376.11 320.033 375.79C319.871 375.47 319.645 375.217 319.354 375.033C319.063 374.849 318.735 374.755 318.37 374.751C318.006 374.755 317.678 374.849 317.387 375.033C317.1 375.217 316.875 375.47 316.713 375.79C316.551 376.11 316.47 376.471 316.47 376.873ZM322.569 369.713H323.729V375.238H325.575V369.381H326.746V383.271H325.575V376.254H323.729V382.586H322.569V369.713ZM340.956 377.503H335.298V380.343H334.083V377.503H328.238V376.486H340.956V377.503ZM329.873 378.972H331.1V381.945H339.542V382.961H329.873V378.972ZM329.895 370.055H339.298V374.895H329.895V370.055ZM338.083 373.912V371.039H331.1V373.912H338.083ZM352.381 375.293H354.602V376.331H352.381V383.271H351.155V369.381H352.381V375.293ZM341.431 379.569C343.096 379.562 344.374 379.545 345.265 379.519V377.989C344.728 377.926 344.256 377.783 343.851 377.558C343.45 377.333 343.14 377.042 342.923 376.685C342.706 376.328 342.599 375.923 342.602 375.47C342.599 374.954 342.733 374.501 343.006 374.11C343.278 373.72 343.663 373.418 344.16 373.204C344.658 372.991 345.232 372.884 345.884 372.884C346.529 372.884 347.1 372.991 347.597 373.204C348.098 373.418 348.486 373.72 348.763 374.11C349.043 374.501 349.184 374.954 349.188 375.47C349.184 375.923 349.07 376.33 348.845 376.691C348.624 377.048 348.311 377.339 347.906 377.564C347.501 377.785 347.03 377.926 346.492 377.989V379.47C347.936 379.403 349.206 379.289 350.304 379.127L350.392 380.055C349.044 380.284 347.661 380.433 346.243 380.503C344.825 380.573 343.291 380.608 341.641 380.608L341.431 379.569ZM341.685 371.083H345.265V369.403H346.492V371.083H350.061V372.077H341.685V371.083ZM343.752 375.47C343.752 375.786 343.84 376.064 344.017 376.304C344.194 376.543 344.442 376.729 344.763 376.862C345.087 376.991 345.461 377.053 345.884 377.05C346.304 377.053 346.674 376.991 346.995 376.862C347.315 376.729 347.564 376.543 347.741 376.304C347.917 376.064 348.006 375.786 348.006 375.47C348.006 375.149 347.917 374.867 347.741 374.624C347.564 374.378 347.315 374.186 346.995 374.05C346.674 373.913 346.304 373.845 345.884 373.845C345.461 373.845 345.087 373.913 344.763 374.05C344.442 374.182 344.194 374.372 344.017 374.619C343.84 374.866 343.752 375.149 343.752 375.47ZM366.857 383.271H365.674V369.381H366.857V383.271ZM355.133 375.37C355.133 374.398 355.254 373.549 355.497 372.823C355.744 372.094 356.09 371.534 356.536 371.144C356.986 370.75 357.509 370.552 358.105 370.552C358.698 370.552 359.218 370.744 359.663 371.127C360.113 371.506 360.461 372.048 360.707 372.751H362.923V369.68H364.094V382.564H362.923V378H360.707C360.461 378.703 360.113 379.247 359.663 379.63C359.218 380.013 358.698 380.203 358.105 380.199C357.509 380.203 356.986 380.007 356.536 379.613C356.09 379.219 355.744 378.657 355.497 377.928C355.254 377.199 355.133 376.346 355.133 375.37ZM356.271 375.37C356.267 376.114 356.339 376.764 356.486 377.32C356.634 377.873 356.846 378.298 357.122 378.597C357.402 378.895 357.73 379.042 358.105 379.039C358.481 379.042 358.809 378.895 359.089 378.597C359.372 378.298 359.59 377.873 359.741 377.32C359.895 376.764 359.973 376.114 359.973 375.37C359.973 374.626 359.895 373.978 359.741 373.425C359.59 372.873 359.372 372.448 359.089 372.149C358.809 371.851 358.481 371.702 358.105 371.702C357.73 371.702 357.402 371.851 357.122 372.149C356.846 372.448 356.634 372.873 356.486 373.425C356.339 373.978 356.267 374.626 356.271 375.37ZM360.973 373.768C361.065 374.273 361.111 374.807 361.111 375.37C361.111 375.93 361.065 376.464 360.973 376.972H362.923V373.768H360.973ZM375.265 369.989C375.265 370.541 375.503 371.055 375.978 371.53C376.453 372.002 377.074 372.396 377.84 372.713C378.61 373.026 379.42 373.234 380.271 373.337L379.84 374.276C379.096 374.18 378.38 374.009 377.691 373.762C377.006 373.512 376.394 373.195 375.857 372.812C375.323 372.429 374.914 371.994 374.63 371.508C374.343 371.991 373.93 372.425 373.393 372.812C372.858 373.195 372.249 373.51 371.564 373.757C370.879 374.004 370.168 374.177 369.431 374.276L369 373.337C369.851 373.234 370.66 373.026 371.426 372.713C372.196 372.396 372.818 372.002 373.293 371.53C373.768 371.055 374.006 370.541 374.006 369.989V369.448H375.265V369.989ZM368.304 375.193H380.967V376.188H375.232V377.58H379.332V380.729H371.078V382.144H379.752V383.116H369.873V379.812H378.127V378.552H369.84V377.58H374.006V376.188H368.304V375.193ZM389.354 371.193V371.32C389.347 371.994 389.321 372.637 389.277 373.249C389.232 373.856 389.137 374.541 388.989 375.304L387.763 375.204C387.914 374.464 388.013 373.807 388.061 373.232C388.109 372.657 388.137 372.074 388.144 371.481H382.426V370.453H389.354V371.193ZM381.575 376.597C382.875 376.589 383.87 376.576 384.558 376.558V373.536H385.774V376.519C387.568 376.442 389.092 376.317 390.348 376.144L390.426 377.05C389.133 377.271 387.768 377.418 386.332 377.492C384.895 377.565 383.35 377.606 381.696 377.613L381.575 376.597ZM383.719 378.884H384.945V381.945H392.989V382.961H383.719V378.884ZM391.299 369.381H392.536V373.901H394.569V374.95H392.536V379.834H391.299V369.381Z" fill="#191516"/>
<path d="M279.425 237.967H281.514V239.006H279.425V243.801H278.199V233.392H279.425V237.967ZM268.597 235.094H272.133V233.392H273.348V235.094H276.873V236.099H268.597V235.094ZM269.392 239.459C269.389 238.939 269.525 238.484 269.801 238.094C270.081 237.7 270.473 237.396 270.978 237.182C271.486 236.969 272.074 236.862 272.74 236.862C273.396 236.862 273.974 236.969 274.475 237.182C274.98 237.396 275.372 237.7 275.652 238.094C275.932 238.484 276.074 238.939 276.077 239.459C276.074 239.971 275.932 240.42 275.652 240.807C275.372 241.193 274.98 241.494 274.475 241.707C273.974 241.917 273.396 242.022 272.74 242.022C272.074 242.022 271.486 241.917 270.978 241.707C270.473 241.497 270.081 241.199 269.801 240.812C269.525 240.422 269.389 239.971 269.392 239.459ZM270.564 239.459C270.56 239.779 270.648 240.061 270.829 240.304C271.009 240.543 271.263 240.729 271.591 240.862C271.923 240.991 272.306 241.053 272.74 241.05C273.168 241.053 273.545 240.991 273.873 240.862C274.201 240.729 274.455 240.543 274.635 240.304C274.82 240.061 274.913 239.779 274.917 239.459C274.913 239.131 274.82 238.843 274.635 238.597C274.455 238.35 274.201 238.16 273.873 238.028C273.545 237.891 273.168 237.823 272.74 237.823C272.306 237.823 271.923 237.891 271.591 238.028C271.263 238.16 271.009 238.35 270.829 238.597C270.648 238.843 270.56 239.131 270.564 239.459ZM270.729 242.961H271.945V245.945H280.066V246.961H270.729V242.961ZM288.232 233.547C289.26 233.547 290.14 233.641 290.873 233.829C291.61 234.013 292.171 234.285 292.558 234.646C292.945 235.007 293.138 235.444 293.138 235.956C293.138 236.471 292.945 236.91 292.558 237.271C292.171 237.628 291.611 237.901 290.879 238.088C290.146 238.276 289.263 238.372 288.232 238.376C287.201 238.372 286.317 238.276 285.58 238.088C284.847 237.901 284.286 237.628 283.895 237.271C283.508 236.91 283.315 236.471 283.315 235.956C283.315 235.444 283.508 235.007 283.895 234.646C284.286 234.285 284.847 234.013 285.58 233.829C286.317 233.641 287.201 233.547 288.232 233.547ZM281.912 239.293H294.575V240.276H288.84V241.591H292.939V244.696H284.685V246.144H293.359V247.116H283.481V243.79H291.735V242.53H283.448V241.591H287.613V240.276H281.912V239.293ZM284.597 235.956C284.593 236.269 284.733 236.536 285.017 236.757C285.304 236.978 285.72 237.145 286.265 237.26C286.81 237.374 287.466 237.433 288.232 237.436C289.002 237.433 289.659 237.374 290.204 237.26C290.753 237.145 291.171 236.978 291.459 236.757C291.746 236.536 291.89 236.269 291.89 235.956C291.89 235.65 291.744 235.389 291.453 235.171C291.166 234.954 290.748 234.786 290.199 234.669C289.654 234.551 288.998 234.49 288.232 234.486C287.47 234.49 286.816 234.551 286.271 234.669C285.726 234.786 285.309 234.956 285.022 235.177C284.735 235.394 284.593 235.654 284.597 235.956ZM302.961 235.193V235.32C302.954 235.994 302.928 236.637 302.884 237.249C302.84 237.856 302.744 238.541 302.597 239.304L301.37 239.204C301.521 238.464 301.621 237.807 301.669 237.232C301.717 236.657 301.744 236.074 301.751 235.481H296.033V234.453H302.961V235.193ZM295.182 240.597C296.483 240.589 297.477 240.576 298.166 240.558V237.536H299.381V240.519C301.175 240.442 302.7 240.317 303.956 240.144L304.033 241.05C302.74 241.271 301.376 241.418 299.939 241.492C298.503 241.565 296.958 241.606 295.304 241.613L295.182 240.597ZM297.326 242.884H298.553V245.945H306.597V246.961H297.326V242.884ZM304.906 233.381H306.144V237.901H308.177V238.95H306.144V243.834H304.906V233.381Z" fill="#191516"/>
<path d="M509.044 345.271H507.818V331.381H509.044V345.271ZM497.74 341.657C499.593 340.781 501.013 339.687 502 338.376C502.987 337.064 503.549 335.569 503.685 333.89H498.381V332.895H504.934C504.926 334.987 504.396 336.869 503.343 338.541C502.293 340.21 500.646 341.584 498.403 342.663L497.74 341.657ZM512.989 337.89C514.146 337.886 515.166 337.851 516.05 337.785C516.937 337.718 517.836 337.599 518.746 337.425L518.89 338.431C517.921 338.615 516.971 338.742 516.039 338.812C515.107 338.882 514.024 338.917 512.79 338.917H511.74V332.077H512.989V337.89ZM513.442 340.177H522.425V345.083H513.442V340.177ZM521.21 344.077V341.16H514.646V344.077H521.21ZM517.21 335.414H521.199V333.923H517.21V332.961H521.199V331.381H522.425V339.558H521.199V336.376H517.21V335.414ZM531.961 333.193V333.32C531.954 333.994 531.928 334.637 531.884 335.249C531.84 335.856 531.744 336.541 531.597 337.304L530.37 337.204C530.521 336.464 530.621 335.807 530.669 335.232C530.717 334.657 530.744 334.074 530.751 333.481H525.033V332.453H531.961V333.193ZM524.182 338.597C525.483 338.589 526.477 338.576 527.166 338.558V335.536H528.381V338.519C530.175 338.442 531.7 338.317 532.956 338.144L533.033 339.05C531.74 339.271 530.376 339.418 528.939 339.492C527.503 339.565 525.958 339.606 524.304 339.613L524.182 338.597ZM526.326 340.884H527.553V343.945H535.597V344.961H526.326V340.884ZM533.906 331.381H535.144V335.901H537.177V336.95H535.144V341.834H533.906V331.381Z" fill="#191516"/>
<path d="M584.337 287.293H586.558V288.331H584.337V295.271H583.11V281.381H584.337V287.293ZM573.387 291.569C575.052 291.562 576.33 291.545 577.221 291.519V289.989C576.683 289.926 576.212 289.783 575.807 289.558C575.405 289.333 575.096 289.042 574.878 288.685C574.661 288.328 574.554 287.923 574.558 287.47C574.554 286.954 574.689 286.501 574.961 286.11C575.234 285.72 575.619 285.418 576.116 285.204C576.613 284.991 577.188 284.884 577.84 284.884C578.484 284.884 579.055 284.991 579.552 285.204C580.053 285.418 580.442 285.72 580.718 286.11C580.998 286.501 581.14 286.954 581.144 287.47C581.14 287.923 581.026 288.33 580.801 288.691C580.58 289.048 580.267 289.339 579.862 289.564C579.457 289.785 578.985 289.926 578.448 289.989V291.47C579.891 291.403 581.162 291.289 582.26 291.127L582.348 292.055C581 292.284 579.617 292.433 578.199 292.503C576.781 292.573 575.247 292.608 573.597 292.608L573.387 291.569ZM573.641 283.083H577.221V281.403H578.448V283.083H582.017V284.077H573.641V283.083ZM575.707 287.47C575.707 287.786 575.796 288.064 575.972 288.304C576.149 288.543 576.398 288.729 576.718 288.862C577.042 288.991 577.416 289.053 577.84 289.05C578.26 289.053 578.63 288.991 578.95 288.862C579.271 288.729 579.519 288.543 579.696 288.304C579.873 288.064 579.961 287.786 579.961 287.47C579.961 287.149 579.873 286.867 579.696 286.624C579.519 286.378 579.271 286.186 578.95 286.05C578.63 285.913 578.26 285.845 577.84 285.845C577.416 285.845 577.042 285.913 576.718 286.05C576.398 286.182 576.149 286.372 575.972 286.619C575.796 286.866 575.707 287.149 575.707 287.47ZM598.127 288.884H593.84V292.486H599.63V293.514H586.912V292.486H592.624V288.884H588.536V282.508H597.995V283.514H589.762V287.89H598.127V288.884ZM607.961 283.193V283.32C607.954 283.994 607.928 284.637 607.884 285.249C607.84 285.856 607.744 286.541 607.597 287.304L606.37 287.204C606.521 286.464 606.621 285.807 606.669 285.232C606.717 284.657 606.744 284.074 606.751 283.481H601.033V282.453H607.961V283.193ZM600.182 288.597C601.483 288.589 602.477 288.576 603.166 288.558V285.536H604.381V288.519C606.175 288.442 607.7 288.317 608.956 288.144L609.033 289.05C607.74 289.271 606.376 289.418 604.939 289.492C603.503 289.565 601.958 289.606 600.304 289.613L600.182 288.597ZM602.326 290.884H603.553V293.945H611.597V294.961H602.326V290.884ZM609.906 281.381H611.144V285.901H613.177V286.95H611.144V291.834H609.906V281.381Z" fill="#191516"/>
<path d="M634.011 420.293H632.785V406.381H634.011V420.293ZM623.37 407.564H624.597V411.232H628.729V407.564H629.945V416.934H623.37V407.564ZM628.729 415.906V412.215H624.597V415.906H628.729ZM642.895 416.735H636.486V407.785H642.895V416.735ZM641.669 415.729V408.768H637.68V415.729H641.669ZM645.437 406.381H646.663V411.928H648.983V412.978H646.663V420.271H645.437V406.381ZM656.961 408.193V408.32C656.954 408.994 656.928 409.637 656.884 410.249C656.84 410.856 656.744 411.541 656.597 412.304L655.37 412.204C655.521 411.464 655.621 410.807 655.669 410.232C655.717 409.657 655.744 409.074 655.751 408.481H650.033V407.453H656.961V408.193ZM649.182 413.597C650.483 413.589 651.477 413.576 652.166 413.558V410.536H653.381V413.519C655.175 413.442 656.7 413.317 657.956 413.144L658.033 414.05C656.74 414.271 655.376 414.418 653.939 414.492C652.503 414.565 650.958 414.606 649.304 414.613L649.182 413.597ZM651.326 415.884H652.553V418.945H660.597V419.961H651.326V415.884ZM658.906 406.381H660.144V410.901H662.177V411.95H660.144V416.834H658.906V406.381Z" fill="#191516"/>
<path d="M758.304 473.265C758.304 473.825 758.448 474.359 758.735 474.867C759.022 475.376 759.425 475.823 759.945 476.21C760.468 476.597 761.07 476.893 761.751 477.099L761.166 478.061C760.366 477.814 759.667 477.442 759.066 476.945C758.47 476.444 758.018 475.858 757.713 475.188C757.411 475.921 756.952 476.56 756.337 477.105C755.722 477.65 755 478.057 754.171 478.326L753.564 477.365C754.249 477.155 754.858 476.845 755.392 476.436C755.926 476.028 756.343 475.549 756.641 475C756.939 474.451 757.088 473.873 757.088 473.265V473.022H753.95V472.028H757.088V470.315H758.326V472.028H761.431V473.022H758.304V473.265ZM755.652 479.254H764.425V484.083H755.652V479.254ZM763.21 483.077V480.227H756.856V483.077H763.21ZM763.199 470.381H764.425V473.906H766.514V474.945H764.425V478.613H763.199V470.381ZM778.359 478.448H777.155V470.381H778.359V478.448ZM767.641 470.967H768.856V473.122H772.956V470.967H774.171V477.177H767.641V470.967ZM768.646 483.32C769.427 483.236 770.175 483.048 770.89 482.757C771.604 482.462 772.184 482.107 772.63 481.691C773.079 481.271 773.313 480.842 773.332 480.403H769.221V479.431H773.354V478.094H774.569V479.431H778.724V480.403H774.591C774.61 480.831 774.838 481.252 775.276 481.669C775.715 482.081 776.286 482.435 776.989 482.729C777.693 483.024 778.433 483.217 779.21 483.309L778.757 484.26C778.068 484.164 777.407 483.996 776.774 483.757C776.144 483.517 775.584 483.223 775.094 482.873C774.608 482.519 774.23 482.133 773.961 481.713C773.689 482.144 773.304 482.536 772.807 482.89C772.309 483.239 771.74 483.532 771.1 483.768C770.459 484.004 769.788 484.168 769.088 484.26L768.646 483.32ZM772.956 476.193V474.072H768.856V476.193H772.956ZM787.961 472.193V472.32C787.954 472.994 787.928 473.637 787.884 474.249C787.84 474.856 787.744 475.541 787.597 476.304L786.37 476.204C786.521 475.464 786.621 474.807 786.669 474.232C786.717 473.657 786.744 473.074 786.751 472.481H781.033V471.453H787.961V472.193ZM780.182 477.597C781.483 477.589 782.477 477.576 783.166 477.558V474.536H784.381V477.519C786.175 477.442 787.7 477.317 788.956 477.144L789.033 478.05C787.74 478.271 786.376 478.418 784.939 478.492C783.503 478.565 781.958 478.606 780.304 478.613L780.182 477.597ZM782.326 479.884H783.553V482.945H791.597V483.961H782.326V479.884ZM789.906 470.381H791.144V474.901H793.177V475.95H791.144V480.834H789.906V470.381Z" fill="#191516"/>
<path d="M748.718 392.304C748.718 393.066 748.836 393.818 749.072 394.558C749.311 395.298 749.654 395.965 750.099 396.558C750.549 397.151 751.076 397.611 751.68 397.939L750.939 398.912C750.28 398.532 749.711 398.007 749.232 397.337C748.753 396.667 748.387 395.902 748.133 395.044C747.871 395.972 747.488 396.803 746.983 397.536C746.479 398.269 745.886 398.838 745.204 399.243L744.409 398.348C745.039 397.983 745.589 397.486 746.061 396.856C746.536 396.223 746.901 395.517 747.155 394.74C747.409 393.959 747.536 393.173 747.536 392.381V389.685H748.718V392.304ZM752.188 388.68H753.37V393.972H755.282V388.381H756.464V402.271H755.282V394.989H753.37V401.564H752.188V388.68ZM769.359 396.448H768.155V388.381H769.359V396.448ZM758.641 388.967H759.856V391.122H763.956V388.967H765.171V395.177H758.641V388.967ZM759.646 401.32C760.427 401.236 761.175 401.048 761.89 400.757C762.604 400.462 763.184 400.107 763.63 399.691C764.079 399.271 764.313 398.842 764.332 398.403H760.221V397.431H764.354V396.094H765.569V397.431H769.724V398.403H765.591C765.61 398.831 765.838 399.252 766.276 399.669C766.715 400.081 767.286 400.435 767.989 400.729C768.693 401.024 769.433 401.217 770.21 401.309L769.757 402.26C769.068 402.164 768.407 401.996 767.774 401.757C767.144 401.517 766.584 401.223 766.094 400.873C765.608 400.519 765.23 400.133 764.961 399.713C764.689 400.144 764.304 400.536 763.807 400.89C763.309 401.239 762.74 401.532 762.1 401.768C761.459 402.004 760.788 402.168 760.088 402.26L759.646 401.32ZM763.956 394.193V392.072H759.856V394.193H763.956ZM778.961 390.193V390.32C778.954 390.994 778.928 391.637 778.884 392.249C778.84 392.856 778.744 393.541 778.597 394.304L777.37 394.204C777.521 393.464 777.621 392.807 777.669 392.232C777.717 391.657 777.744 391.074 777.751 390.481H772.033V389.453H778.961V390.193ZM771.182 395.597C772.483 395.589 773.477 395.576 774.166 395.558V392.536H775.381V395.519C777.175 395.442 778.7 395.317 779.956 395.144L780.033 396.05C778.74 396.271 777.376 396.418 775.939 396.492C774.503 396.565 772.958 396.606 771.304 396.613L771.182 395.597ZM773.326 397.884H774.553V400.945H782.597V401.961H773.326V397.884ZM780.906 388.381H782.144V392.901H784.177V393.95H782.144V398.834H780.906V388.381Z" fill="#191516"/>
<path d="M583.884 532.713C584.886 532.709 585.755 532.814 586.492 533.028C587.228 533.241 587.796 533.552 588.193 533.961C588.591 534.366 588.79 534.849 588.79 535.409C588.79 535.924 588.617 536.376 588.271 536.762C587.928 537.145 587.435 537.449 586.79 537.674C586.149 537.895 585.387 538.026 584.503 538.066V539.453H590.227V540.459H577.564V539.453H583.287V538.072C582.4 538.031 581.632 537.899 580.983 537.674C580.335 537.449 579.836 537.145 579.486 536.762C579.14 536.376 578.967 535.924 578.967 535.409C578.967 534.849 579.166 534.366 579.564 533.961C579.965 533.552 580.534 533.241 581.271 533.028C582.011 532.814 582.882 532.709 583.884 532.713ZM578.967 541.785H588.657V546.271H587.42V542.779H578.967V541.785ZM580.238 535.409C580.234 535.755 580.379 536.055 580.674 536.309C580.969 536.564 581.39 536.761 581.939 536.901C582.492 537.037 583.14 537.107 583.884 537.11C584.624 537.107 585.269 537.037 585.818 536.901C586.37 536.761 586.796 536.564 587.094 536.309C587.392 536.055 587.541 535.755 587.541 535.409C587.541 535.055 587.392 534.75 587.094 534.492C586.796 534.234 586.37 534.039 585.818 533.906C585.269 533.77 584.624 533.703 583.884 533.707C583.14 533.703 582.492 533.77 581.939 533.906C581.39 534.039 580.969 534.234 580.674 534.492C580.379 534.75 580.234 535.055 580.238 535.409ZM595.453 533.398C596.175 533.398 596.82 533.536 597.387 533.812C597.954 534.085 598.396 534.468 598.713 534.961C599.033 535.455 599.195 536.02 599.199 536.657C599.195 537.295 599.033 537.86 598.713 538.354C598.396 538.847 597.954 539.232 597.387 539.508C596.82 539.781 596.175 539.917 595.453 539.917C594.731 539.917 594.085 539.781 593.514 539.508C592.943 539.232 592.497 538.847 592.177 538.354C591.86 537.856 591.704 537.291 591.707 536.657C591.704 536.024 591.86 535.46 592.177 534.967C592.497 534.47 592.943 534.085 593.514 533.812C594.085 533.536 594.731 533.398 595.453 533.398ZM591.812 542.182C593.363 542.182 594.832 542.151 596.221 542.088C597.61 542.026 598.923 541.902 600.16 541.718L600.26 542.624C599.28 542.808 598.262 542.945 597.204 543.033C596.151 543.122 595.166 543.177 594.249 543.199C593.335 543.221 592.304 543.232 591.155 543.232L590.989 542.182H591.812ZM592.912 536.657C592.908 537.081 593.015 537.46 593.232 537.796C593.449 538.127 593.751 538.385 594.138 538.569C594.525 538.753 594.963 538.845 595.453 538.845C595.939 538.845 596.374 538.753 596.757 538.569C597.144 538.385 597.446 538.127 597.663 537.796C597.884 537.46 597.995 537.081 597.995 536.657C597.995 536.234 597.884 535.856 597.663 535.525C597.446 535.19 597.144 534.93 596.757 534.746C596.374 534.562 595.939 534.47 595.453 534.47C594.963 534.47 594.525 534.562 594.138 534.746C593.751 534.93 593.449 535.19 593.232 535.525C593.015 535.856 592.908 536.234 592.912 536.657ZM601.077 532.381H602.304V546.293H601.077V532.381ZM611.961 534.193V534.32C611.954 534.994 611.928 535.637 611.884 536.249C611.84 536.856 611.744 537.541 611.597 538.304L610.37 538.204C610.521 537.464 610.621 536.807 610.669 536.232C610.717 535.657 610.744 535.074 610.751 534.481H605.033V533.453H611.961V534.193ZM604.182 539.597C605.483 539.589 606.477 539.576 607.166 539.558V536.536H608.381V539.519C610.175 539.442 611.7 539.317 612.956 539.144L613.033 540.05C611.74 540.271 610.376 540.418 608.939 540.492C607.503 540.565 605.958 540.606 604.304 540.613L604.182 539.597ZM606.326 541.884H607.553V544.945H615.597V545.961H606.326V541.884ZM613.906 532.381H615.144V536.901H617.177V537.95H615.144V542.834H613.906V532.381Z" fill="#191516"/>
<path d="M539.061 39H537.646V29.1547H537.58L534.829 30.9779V29.5635L537.646 27.6851H539.061V39ZM553.099 29.453H541.729V28.4365H546.823V26.6133H548.027V28.4365H553.099V29.453ZM541.099 37.6188H546.823V35.6685C545.998 35.628 545.287 35.4972 544.69 35.2762C544.097 35.0516 543.642 34.7495 543.326 34.3702C543.009 33.9871 542.852 33.5378 542.856 33.0221C542.852 32.4733 543.033 32.0018 543.398 31.6077C543.766 31.2136 544.293 30.9134 544.978 30.7072C545.666 30.5009 546.48 30.3996 547.42 30.4033C548.351 30.3996 549.162 30.5009 549.851 30.7072C550.539 30.9134 551.068 31.2155 551.436 31.6133C551.808 32.0074 551.994 32.477 551.994 33.0221C551.994 33.5341 551.834 33.9816 551.514 34.3646C551.197 34.744 550.74 35.046 550.143 35.2707C549.55 35.4917 548.845 35.6243 548.027 35.6685V37.6188H553.817V38.6354H541.099V37.6188ZM544.094 33.0221C544.09 33.3683 544.221 33.6667 544.486 33.9171C544.755 34.1639 545.138 34.3536 545.635 34.4862C546.136 34.6188 546.731 34.6869 547.42 34.6906C548.105 34.6869 548.696 34.6188 549.193 34.4862C549.694 34.3536 550.077 34.1639 550.342 33.9171C550.611 33.6667 550.746 33.3683 550.746 33.0221C550.746 32.6796 550.611 32.3849 550.342 32.1381C550.077 31.8913 549.694 31.7035 549.193 31.5746C548.692 31.442 548.101 31.3757 547.42 31.3757C546.735 31.3757 546.142 31.442 545.641 31.5746C545.14 31.7035 544.755 31.8913 544.486 32.1381C544.221 32.3849 544.09 32.6796 544.094 33.0221ZM559.199 29C559.199 29.6372 559.342 30.256 559.63 30.8564C559.921 31.453 560.326 31.9834 560.845 32.4475C561.368 32.9079 561.965 33.2578 562.635 33.4972L561.95 34.4586C561.184 34.1565 560.51 33.7164 559.928 33.1381C559.35 32.5599 558.91 31.8932 558.608 31.1381C558.313 31.9742 557.862 32.7109 557.254 33.3481C556.65 33.9853 555.939 34.4659 555.121 34.7901L554.469 33.7956C555.154 33.5451 555.762 33.175 556.293 32.6851C556.827 32.1915 557.243 31.6225 557.541 30.9779C557.84 30.3333 557.991 29.6593 557.994 28.9558V27.232H559.199V29ZM556.978 35.6077H558.215V38.9448H566.282V39.9613H556.978V35.6077ZM561.641 29.663H564.735V26.3923H565.961V36.8011H564.735V30.6906H561.641V29.663ZM579.033 28.0055V28.116C579.025 28.7459 578.998 29.3389 578.95 29.895C578.906 30.4512 578.808 31.0737 578.657 31.7624L577.442 31.6519C577.585 31 577.681 30.4107 577.729 29.884C577.777 29.3573 577.802 28.8232 577.806 28.2818H572.105V27.2541H579.033V28.0055ZM571.254 33.0552C572.359 33.0552 573.353 33.046 574.237 33.0276V30.2707H575.453V32.989C577.239 32.9263 578.764 32.8122 580.027 32.6464L580.105 33.5414C578.797 33.7551 577.405 33.9006 575.928 33.9779C574.454 34.0552 572.937 34.0939 571.375 34.0939L571.254 33.0552ZM573.077 37.7072C573.077 37.1915 573.263 36.7495 573.635 36.3812C574.007 36.0092 574.539 35.7256 575.232 35.5304C575.928 35.3315 576.753 35.232 577.707 35.232C578.661 35.232 579.484 35.3315 580.176 35.5304C580.872 35.7256 581.407 36.0092 581.779 36.3812C582.151 36.7495 582.337 37.1915 582.337 37.7072C582.337 38.2376 582.151 38.6906 581.779 39.0663C581.41 39.4457 580.878 39.733 580.182 39.9282C579.486 40.1271 578.661 40.2265 577.707 40.2265C576.753 40.2265 575.928 40.1271 575.232 39.9282C574.535 39.733 574.001 39.4457 573.629 39.0663C573.261 38.6906 573.077 38.2376 573.077 37.7072ZM574.314 37.7072C574.311 38.0313 574.445 38.3094 574.718 38.5414C574.99 38.7698 575.381 38.9429 575.889 39.0608C576.401 39.1823 577.007 39.2431 577.707 39.2431C578.403 39.2431 579.003 39.1823 579.508 39.0608C580.016 38.9429 580.407 38.7698 580.679 38.5414C580.955 38.3094 581.095 38.0313 581.099 37.7072C581.095 37.3978 580.955 37.1289 580.679 36.9006C580.407 36.6722 580.016 36.4972 579.508 36.3757C579 36.2541 578.399 36.1934 577.707 36.1934C577.011 36.1934 576.407 36.2541 575.895 36.3757C575.383 36.4972 574.99 36.6722 574.718 36.9006C574.445 37.1289 574.311 37.3978 574.314 37.7072ZM580.977 26.3812H582.215V30.1823H584.248V31.221H582.215V35.0552H580.977V26.3812ZM597.375 34.4586H591.74V37.2983H590.502V34.4586H584.657V33.442H597.375V34.4586ZM586.105 29.5304C586.101 28.9632 586.3 28.4696 586.701 28.0497C587.106 27.6298 587.677 27.3076 588.414 27.0829C589.154 26.8545 590.016 26.7385 591 26.7348C591.987 26.7385 592.849 26.8545 593.585 27.0829C594.322 27.3076 594.891 27.6298 595.292 28.0497C595.694 28.4696 595.895 28.9632 595.895 29.5304C595.895 30.0939 595.694 30.5856 595.292 31.0055C594.891 31.4217 594.32 31.7422 593.58 31.9669C592.843 32.1915 591.983 32.3039 591 32.3039C590.016 32.3039 589.154 32.1915 588.414 31.9669C587.677 31.7422 587.106 31.4217 586.701 31.0055C586.3 30.5856 586.101 30.0939 586.105 29.5304ZM586.303 35.9061H587.53V38.9227H595.961V39.9613H586.303V35.9061ZM587.408 29.5304C587.405 29.8877 587.552 30.2007 587.85 30.4696C588.149 30.7348 588.569 30.9392 589.11 31.0829C589.655 31.2265 590.285 31.2983 591 31.2983C591.718 31.2983 592.348 31.2265 592.889 31.0829C593.434 30.9392 593.856 30.7348 594.154 30.4696C594.453 30.2007 594.602 29.8877 594.602 29.5304C594.602 29.1657 594.453 28.849 594.154 28.5801C593.856 28.3112 593.434 28.105 592.889 27.9613C592.348 27.814 591.718 27.7403 591 27.7403C590.285 27.7403 589.655 27.814 589.11 27.9613C588.569 28.105 588.149 28.3112 587.85 28.5801C587.552 28.849 587.405 29.1657 587.408 29.5304ZM609.895 40.2707H608.723V32.9779H606.69V39.5414H605.552V26.6906H606.69V31.9613H608.723V26.3812H609.895V40.2707ZM598.536 28.0829H603.74V29.0884H599.762V35.7845C600.779 35.7808 601.644 35.7514 602.359 35.6961C603.077 35.6409 603.803 35.5378 604.536 35.3867L604.646 36.4144C603.865 36.5801 603.095 36.6906 602.337 36.7459C601.582 36.7974 600.613 36.8269 599.431 36.8343H598.536V28.0829ZM622.889 40.2707H621.663V36.3149H613.541V35.3315H622.889V40.2707ZM611.596 30.4917C611.593 29.8545 611.746 29.2855 612.055 28.7845C612.364 28.2799 612.792 27.8858 613.337 27.6022C613.882 27.3186 614.495 27.1768 615.177 27.1768C615.777 27.1768 616.328 27.2855 616.828 27.5028C617.329 27.7201 617.742 28.0276 618.066 28.4254H621.663V26.3812H622.889V34.558H621.663V32.5691H618.072C617.744 32.9669 617.331 33.2762 616.834 33.4972C616.34 33.7145 615.795 33.8214 615.199 33.8177C614.514 33.8214 613.897 33.6832 613.348 33.4033C612.799 33.1197 612.368 32.7256 612.055 32.221C611.746 31.7127 611.593 31.1363 611.596 30.4917ZM612.768 30.4917C612.768 30.9337 612.871 31.3296 613.077 31.6796C613.287 32.0258 613.576 32.2965 613.944 32.4917C614.313 32.6832 614.731 32.779 615.199 32.779C615.652 32.779 616.06 32.6832 616.425 32.4917C616.793 32.2965 617.083 32.0258 617.293 31.6796C617.502 31.3296 617.607 30.9337 617.607 30.4917C617.607 30.0608 617.502 29.6722 617.293 29.326C617.083 28.9797 616.793 28.709 616.425 28.5138C616.06 28.3149 615.652 28.2155 615.199 28.2155C614.735 28.2155 614.316 28.3131 613.944 28.5083C613.576 28.7035 613.287 28.9742 613.077 29.3204C612.871 29.6667 612.768 30.0571 612.768 30.4917ZM621.663 31.5525V29.442H618.624C618.735 29.7845 618.79 30.1344 618.79 30.4917C618.79 30.8564 618.735 31.2099 618.624 31.5525H621.663Z" fill="#191516"/>
<path d="M53.3978 702.343V703.934H40.4254V702.343H45.9006V700.972H47.8785V702.343H53.3978ZM40.9669 700.144C44.0055 699.961 45.453 699.044 45.7293 698.061H41.6685V696.492H45.9006V695.26H47.8785V696.492H52.1381V698.061H48.0442C48.3149 699.044 49.768 699.961 52.8122 700.144L52.2099 701.646C49.5912 701.464 47.779 700.707 46.8895 699.558C45.9945 700.707 44.1768 701.464 41.5691 701.646L40.9669 700.144ZM41.9061 707.022C41.9061 705.459 43.7569 704.602 46.884 704.602C50.0055 704.602 51.8287 705.459 51.8398 707.022C51.8287 708.586 50.0055 709.442 46.884 709.436C43.7569 709.442 41.9061 708.586 41.9061 707.022ZM43.9392 707.022C43.9282 707.674 44.9006 707.967 46.884 707.961C48.8343 707.967 49.8343 707.674 49.8398 707.022C49.8343 706.37 48.8343 706.077 46.884 706.077C44.9006 706.077 43.9282 706.37 43.9392 707.022ZM62.21 696.492V698.055H53.768V696.492H57.0001V695.144H58.989V696.492H62.21ZM54.4641 701.138C54.4586 699.575 55.9282 698.519 57.9945 698.514C60.0553 698.519 61.4918 699.575 61.4918 701.138C61.4918 702.702 60.0553 703.757 57.9945 703.757C55.9282 703.757 54.4586 702.702 54.4641 701.138ZM55.4807 706.326V704.735H65.0553V709.442H63.0553V706.326H55.4807ZM56.4034 701.138C56.4034 701.862 57.0387 702.238 57.9945 702.238C58.9448 702.238 59.5967 701.862 59.6023 701.138C59.5967 700.409 58.9448 700.017 57.9945 700.011C57.0387 700.017 56.4034 700.409 56.4034 701.138ZM63.0553 704.138V695.21H65.0553V698.912H66.9669V700.536H65.0553V704.138H63.0553ZM71.6686 697.757C71.6631 699.287 72.4642 700.807 74.3482 701.525L73.2874 703.05C72.0719 702.586 71.2377 701.74 70.7294 700.696C70.2101 701.923 69.3206 702.95 67.9946 703.503L66.9228 701.961C68.9228 701.088 69.7239 699.337 69.7294 697.757V696.083H71.6686V697.757ZM69.5581 706.773C69.5471 705.116 71.4642 704.122 74.4753 704.122C77.4753 704.122 79.4034 705.116 79.409 706.773C79.4034 708.431 77.4753 709.442 74.4753 709.436C71.4642 709.442 69.5471 708.431 69.5581 706.773ZM71.5471 706.773C71.5416 707.547 72.6134 707.939 74.4753 707.934C76.3261 707.939 77.3979 707.547 77.4034 706.773C77.3979 706.011 76.3261 705.608 74.4753 705.613C72.6134 705.608 71.5416 706.011 71.5471 706.773ZM74.4034 703.481V695.481H76.2543V698.702H77.4476V695.232H79.3371V703.928H77.4476V700.32H76.2543V703.481H74.4034ZM92.4145 695.21V709.442H90.4311V695.21H92.4145ZM80.5306 705.425C81.6134 705.42 82.8565 705.414 84.1493 705.387V704.182C82.5913 703.901 81.5803 702.928 81.5858 701.602C81.5803 700.006 83.0278 698.923 85.1217 698.923C87.2322 698.923 88.7018 700.006 88.7018 701.602C88.7018 702.923 87.6853 703.89 86.1328 704.177V705.315C87.3206 705.254 88.5195 705.16 89.6521 705.006L89.7847 706.486C86.6797 707.022 83.3261 707.05 80.7902 707.05L80.5306 705.425ZM80.8123 698.365V696.801H84.1493V695.282H86.1438V696.801H89.4477V698.365H80.8123ZM83.4808 701.602C83.4753 702.348 84.1549 702.751 85.1217 702.751C86.1217 702.751 86.7958 702.348 86.7958 701.602C86.7958 700.862 86.1217 700.442 85.1217 700.442C84.1549 700.442 83.4753 700.862 83.4808 701.602ZM105.696 695.21V702.414H103.718V695.21H105.696ZM93.7516 700.895C96.1273 700.182 97.1881 698.387 97.1936 696.619V695.53H99.2599V696.619C99.2489 698.348 100.288 700.006 102.619 700.674L101.641 702.21C100.011 701.735 98.8842 700.74 98.2433 699.475C97.5969 700.856 96.4312 701.95 94.7406 702.453L93.7516 700.895ZM96.177 704.58V703.039H105.718V706.884H98.1549V707.773H106.105V709.343H96.2102V705.414H103.73V704.58H96.177Z" fill="#191516"/>
<path d="M52.4088 719.232V729.63H50.4199V726.26H47.1602C46.4751 726.983 45.4917 727.42 44.3867 727.42C42.232 727.42 40.5912 725.862 40.6022 723.746C40.5912 721.608 42.232 720.055 44.3867 720.055C45.4917 720.055 46.4807 720.492 47.1657 721.221H50.4199V719.232H52.4088ZM42.4917 723.746C42.4917 724.939 43.2762 725.652 44.3867 725.657C45.4365 725.652 46.2431 724.939 46.2541 723.746C46.2431 722.547 45.4365 721.829 44.3867 721.829C43.2762 721.829 42.4917 722.547 42.4917 723.746ZM42.9724 733.193V728.586H44.9613V731.586H52.7459V733.193H42.9724ZM48.0331 722.818C48.1105 723.11 48.1492 723.42 48.1492 723.746C48.1492 724.061 48.1105 724.37 48.0387 724.657H50.4199V722.818H48.0331ZM60.8067 720.017V724.37H56.2763V725.735C58.6188 725.718 60.2155 725.641 62.0222 725.32L62.2321 726.906C60.199 727.271 58.3702 727.365 55.4807 727.365H54.2874V722.851H58.8619V721.608H54.2653V720.017H60.8067ZM55.4807 730.105V728.514H65.0553V733.42H63.0553V730.105H55.4807ZM63.0553 727.867V719.232H65.0553V722.63H66.978V724.26H65.0553V727.867H63.0553ZM79.1382 719.21V733.475H77.1327V726.282H74.5637V724.685H77.1327V719.21H79.1382ZM67.0498 729.254C69.3427 728.232 70.4532 725.807 70.4587 723.674V723.122H67.5084V721.536H70.4697V719.536H72.4587V721.536H75.3371V723.122H72.4421V723.674C72.4421 725.729 73.5802 728.022 75.9007 729.039L74.8344 730.558C73.2211 729.89 72.094 728.53 71.4642 726.912C70.8565 728.635 69.7349 730.083 68.1106 730.785L67.0498 729.254Z" fill="#191516"/>
<path d="M56.7472 670.826V672.822H49.8204V678.802H47.355V672.822H40.5318V670.826H56.7472ZM41.326 667.843C44.9448 667.407 46.9199 665.646 47.1823 663.906H41.9959V661.959H55.2901V663.906H50.1105C50.3453 665.646 52.3135 667.407 55.9738 667.843L55.0691 669.797C51.9475 669.376 49.7169 668.043 48.6395 666.22C47.5622 668.043 45.3384 669.376 42.2445 669.797L41.326 667.843ZM73.4738 674.68V676.675H57.2169V674.68H64.0194V670.66H66.4918V674.68H73.4738ZM57.5968 669.148C61.6299 668.526 63.8951 665.819 63.9089 663.305V662.041H66.5678V663.305C66.5608 665.847 68.8468 668.526 72.9213 669.148L71.8578 671.227C68.7294 670.653 66.4089 668.982 65.2418 666.765C64.0678 668.975 61.7611 670.667 58.6603 671.227L57.5968 669.148ZM87.4902 662.097V669.576H78.8092V662.097H87.4902ZM79.7554 676.876C83.3051 676.586 85.1697 675.177 85.4391 673.927H80.4736V672.083H85.522V670.612H88.022V672.083H93.0772V673.927H88.0979C88.3742 675.142 90.2319 676.537 93.7678 676.876L92.9322 678.761C89.9695 678.485 87.87 677.414 86.7789 676.012C85.6946 677.428 83.5813 678.471 80.6048 678.761L79.7554 676.876ZM81.2609 667.628H85.0247V664.037H81.2609V667.628ZM90.2871 671.102V661.012H92.7595V671.102H90.2871ZM113.585 661.04V674.037H111.099V669.825H107.024C106.168 670.729 104.939 671.275 103.558 671.275C100.864 671.275 98.8132 669.327 98.827 666.682C98.8132 664.01 100.864 662.069 103.558 662.069C104.939 662.069 106.175 662.615 107.031 663.526H111.099V661.04H113.585ZM101.189 666.682C101.189 668.174 102.17 669.065 103.558 669.072C104.87 669.065 105.878 668.174 105.892 666.682C105.878 665.184 104.87 664.286 103.558 664.286C102.17 664.286 101.189 665.184 101.189 666.682ZM101.79 678.492V672.732H104.276V676.482H114.007V678.492H101.79ZM108.116 665.522C108.212 665.888 108.261 666.275 108.261 666.682C108.261 667.076 108.212 667.463 108.123 667.822H111.099V665.522H108.116ZM124.083 662.021V667.463H118.42V669.169C121.348 669.148 123.344 669.051 125.602 668.651L125.864 670.633C123.323 671.088 121.037 671.206 117.425 671.206H115.933V665.564H121.652V664.01H115.906V662.021H124.083ZM117.425 674.631V672.642H129.393V678.775H126.893V674.631H117.425ZM126.893 671.834V661.04H129.393V665.287H131.797V667.325H129.393V671.834H126.893ZM146.997 661.012V678.844H144.49V669.852H141.279V667.856H144.49V661.012H146.997ZM131.887 673.568C134.753 672.29 136.141 669.258 136.148 666.593V665.902H132.46V663.92H136.161V661.42H138.648V663.92H142.246V665.902H138.627V666.593C138.627 669.162 140.05 672.028 142.95 673.298L141.617 675.198C139.601 674.362 138.192 672.663 137.404 670.64C136.645 672.794 135.243 674.604 133.212 675.481L131.887 673.568Z" fill="#712732"/>
<path d="M128.448 699.116C128.448 699.934 128.608 700.744 128.928 701.547C129.252 702.35 129.691 703.064 130.243 703.691C130.799 704.313 131.413 704.777 132.083 705.083L131.343 706.077C130.82 705.808 130.33 705.451 129.873 705.006C129.42 704.56 129.018 704.05 128.669 703.475C128.322 702.901 128.046 702.285 127.84 701.63C127.637 702.319 127.361 702.969 127.011 703.58C126.665 704.192 126.263 704.733 125.807 705.204C125.35 705.676 124.86 706.052 124.337 706.331L123.552 705.348C124.223 705.017 124.836 704.521 125.392 703.862C125.952 703.203 126.394 702.457 126.718 701.624C127.042 700.788 127.206 699.952 127.21 699.116V696.586H128.448V699.116ZM130.569 700.122H133.862V695.381H135.077V709.293H133.862V701.127H130.569V700.122ZM143.232 695.547C144.26 695.547 145.14 695.641 145.873 695.829C146.61 696.013 147.171 696.285 147.558 696.646C147.945 697.007 148.138 697.444 148.138 697.956C148.138 698.471 147.945 698.91 147.558 699.271C147.171 699.628 146.611 699.901 145.879 700.088C145.146 700.276 144.263 700.372 143.232 700.376C142.201 700.372 141.317 700.276 140.58 700.088C139.847 699.901 139.286 699.628 138.895 699.271C138.508 698.91 138.315 698.471 138.315 697.956C138.315 697.444 138.508 697.007 138.895 696.646C139.286 696.285 139.847 696.013 140.58 695.829C141.317 695.641 142.201 695.547 143.232 695.547ZM136.912 701.293H149.575V702.276H143.84V703.591H147.939V706.696H139.685V708.144H148.359V709.116H138.481V705.79H146.735V704.53H138.448V703.591H142.613V702.276H136.912V701.293ZM139.597 697.956C139.593 698.269 139.733 698.536 140.017 698.757C140.304 698.978 140.72 699.145 141.265 699.26C141.81 699.374 142.466 699.433 143.232 699.436C144.002 699.433 144.659 699.374 145.204 699.26C145.753 699.145 146.171 698.978 146.459 698.757C146.746 698.536 146.89 698.269 146.89 697.956C146.89 697.65 146.744 697.389 146.453 697.171C146.166 696.954 145.748 696.786 145.199 696.669C144.654 696.551 143.998 696.49 143.232 696.486C142.47 696.49 141.816 696.551 141.271 696.669C140.726 696.786 140.309 696.956 140.022 697.177C139.735 697.394 139.593 697.654 139.597 697.956ZM155.199 699.116C155.195 699.937 155.363 700.753 155.702 701.564C156.041 702.374 156.497 703.094 157.072 703.724C157.65 704.35 158.278 704.818 158.956 705.127L158.205 706.099C157.682 705.842 157.186 705.495 156.718 705.061C156.251 704.622 155.834 704.116 155.47 703.541C155.105 702.967 154.814 702.354 154.597 701.702C154.383 702.394 154.094 703.046 153.729 703.657C153.368 704.265 152.95 704.803 152.475 705.271C152 705.738 151.494 706.107 150.956 706.376L150.182 705.348C150.868 705.031 151.499 704.549 152.077 703.901C152.656 703.249 153.114 702.503 153.453 701.663C153.796 700.823 153.969 699.974 153.972 699.116V696.586H155.199V699.116ZM160.481 695.381H161.707V709.293H160.481V695.381ZM178.392 702.729H174.083V706.442H179.862V707.459H167.144V706.442H172.856V702.729H168.702V696.564H169.95V701.702H178.392V702.729ZM191.939 705.945H190.702V704.497H187.84V703.602H190.702V695.392H191.939V705.945ZM180.414 701.823C182.249 701.816 183.886 701.788 185.326 701.74C186.77 701.689 188.145 701.58 189.453 701.414L189.541 702.309C188.389 702.494 187.114 702.628 185.718 702.713V705.459H184.492V702.773C183.545 702.81 182.466 702.829 181.254 702.829H180.58L180.414 701.823ZM181.53 698.376C181.53 697.897 181.674 697.475 181.961 697.11C182.249 696.742 182.654 696.459 183.177 696.26C183.7 696.057 184.3 695.956 184.978 695.956C185.648 695.956 186.243 696.057 186.762 696.26C187.282 696.459 187.685 696.742 187.972 697.11C188.263 697.475 188.411 697.897 188.414 698.376C188.411 698.862 188.263 699.287 187.972 699.652C187.685 700.013 187.282 700.293 186.762 700.492C186.247 700.687 185.652 700.785 184.978 700.785C184.296 700.785 183.694 700.687 183.171 700.492C182.652 700.297 182.249 700.017 181.961 699.652C181.674 699.287 181.53 698.862 181.53 698.376ZM182.414 704.906H183.641V707.945H192.282V708.961H182.414V704.906ZM182.702 698.376C182.698 698.674 182.79 698.936 182.978 699.16C183.169 699.385 183.438 699.56 183.784 699.685C184.131 699.807 184.528 699.867 184.978 699.867C185.412 699.867 185.801 699.807 186.144 699.685C186.486 699.56 186.753 699.385 186.945 699.16C187.14 698.936 187.239 698.674 187.243 698.376C187.239 698.081 187.14 697.821 186.945 697.597C186.753 697.368 186.486 697.192 186.144 697.066C185.801 696.941 185.412 696.88 184.978 696.884C184.528 696.88 184.131 696.941 183.784 697.066C183.438 697.192 183.169 697.368 182.978 697.597C182.79 697.821 182.698 698.081 182.702 698.376ZM204.823 697.503C204.823 698.096 204.816 698.608 204.801 699.039C204.79 699.47 204.755 699.959 204.696 700.508C204.637 701.053 204.547 701.635 204.425 702.254H206.503V703.271H200.757V709.293H199.53V703.271H193.84V702.254H203.177C203.309 701.635 203.407 701.052 203.47 700.503C203.532 699.954 203.571 699.464 203.586 699.033C203.6 698.599 203.608 698.088 203.608 697.503V697.304H195.431V696.287H204.823V697.503ZM218.425 697.006V697.116C218.418 697.746 218.39 698.339 218.342 698.895C218.298 699.451 218.201 700.074 218.05 700.762L216.834 700.652C216.978 700 217.073 699.411 217.121 698.884C217.169 698.357 217.195 697.823 217.199 697.282H211.497V696.254H218.425V697.006ZM210.646 702.055C211.751 702.055 212.746 702.046 213.63 702.028V699.271H214.845V701.989C216.631 701.926 218.156 701.812 219.42 701.646L219.497 702.541C218.189 702.755 216.797 702.901 215.32 702.978C213.847 703.055 212.329 703.094 210.768 703.094L210.646 702.055ZM212.469 706.707C212.469 706.192 212.655 705.75 213.027 705.381C213.399 705.009 213.932 704.726 214.624 704.53C215.32 704.331 216.145 704.232 217.099 704.232C218.053 704.232 218.876 704.331 219.569 704.53C220.265 704.726 220.799 705.009 221.171 705.381C221.543 705.75 221.729 706.192 221.729 706.707C221.729 707.238 221.543 707.691 221.171 708.066C220.803 708.446 220.271 708.733 219.574 708.928C218.878 709.127 218.053 709.227 217.099 709.227C216.145 709.227 215.32 709.127 214.624 708.928C213.928 708.733 213.394 708.446 213.022 708.066C212.654 707.691 212.469 707.238 212.469 706.707ZM213.707 706.707C213.703 707.031 213.838 707.309 214.11 707.541C214.383 707.77 214.773 707.943 215.282 708.061C215.794 708.182 216.399 708.243 217.099 708.243C217.795 708.243 218.396 708.182 218.9 708.061C219.409 707.943 219.799 707.77 220.072 707.541C220.348 707.309 220.488 707.031 220.491 706.707C220.488 706.398 220.348 706.129 220.072 705.901C219.799 705.672 219.409 705.497 218.9 705.376C218.392 705.254 217.792 705.193 217.099 705.193C216.403 705.193 215.799 705.254 215.287 705.376C214.775 705.497 214.383 705.672 214.11 705.901C213.838 706.129 213.703 706.398 213.707 706.707ZM220.37 695.381H221.608V699.182H223.641V700.221H221.608V704.055H220.37V695.381ZM236.768 703.459H231.132V706.298H229.895V703.459H224.05V702.442H236.768V703.459ZM225.497 698.53C225.493 697.963 225.692 697.47 226.094 697.05C226.499 696.63 227.07 696.308 227.806 696.083C228.547 695.855 229.409 695.738 230.392 695.735C231.379 695.738 232.241 695.855 232.978 696.083C233.714 696.308 234.283 696.63 234.685 697.05C235.086 697.47 235.287 697.963 235.287 698.53C235.287 699.094 235.086 699.586 234.685 700.006C234.283 700.422 233.713 700.742 232.972 700.967C232.236 701.192 231.376 701.304 230.392 701.304C229.409 701.304 228.547 701.192 227.806 700.967C227.07 700.742 226.499 700.422 226.094 700.006C225.692 699.586 225.493 699.094 225.497 698.53ZM225.696 704.906H226.922V707.923H235.353V708.961H225.696V704.906ZM226.801 698.53C226.797 698.888 226.945 699.201 227.243 699.47C227.541 699.735 227.961 699.939 228.503 700.083C229.048 700.227 229.678 700.298 230.392 700.298C231.11 700.298 231.74 700.227 232.282 700.083C232.827 699.939 233.248 699.735 233.547 699.47C233.845 699.201 233.994 698.888 233.994 698.53C233.994 698.166 233.845 697.849 233.547 697.58C233.248 697.311 232.827 697.105 232.282 696.961C231.74 696.814 231.11 696.74 230.392 696.74C229.678 696.74 229.048 696.814 228.503 696.961C227.961 697.105 227.541 697.311 227.243 697.58C226.945 697.849 226.797 698.166 226.801 698.53ZM250.138 707.547H237.42V706.508H243.132V703.89H239.011V699.602H247.32V697.425H238.978V696.409H248.536V700.608H240.226V702.873H248.856V703.89H244.348V706.508H250.138V707.547ZM254.79 706.972L258.646 702.906C259.154 702.365 259.541 701.93 259.806 701.602C260.075 701.271 260.28 700.952 260.42 700.646C260.56 700.337 260.631 700.015 260.635 699.68C260.631 699.297 260.53 698.959 260.331 698.669C260.136 698.378 259.867 698.153 259.525 697.994C259.186 697.836 258.804 697.757 258.381 697.757C257.939 697.757 257.55 697.845 257.215 698.022C256.884 698.199 256.628 698.448 256.447 698.768C256.27 699.088 256.182 699.459 256.182 699.878H254.845C254.841 699.223 254.994 698.643 255.304 698.138C255.617 697.63 256.046 697.236 256.591 696.956C257.136 696.672 257.747 696.53 258.425 696.53C259.095 696.53 259.698 696.67 260.232 696.95C260.769 697.227 261.189 697.604 261.491 698.083C261.793 698.562 261.946 699.094 261.95 699.68C261.946 700.11 261.865 700.523 261.707 700.917C261.552 701.308 261.289 701.742 260.917 702.221C260.548 702.7 260.024 703.289 259.342 703.989L256.757 706.663V706.751H262.149V708H254.801L254.79 706.972ZM267.413 708.155C266.581 708.155 265.868 707.928 265.275 707.475C264.686 707.018 264.234 706.355 263.921 705.486C263.612 704.617 263.457 703.569 263.457 702.343C263.457 701.127 263.614 700.085 263.927 699.215C264.24 698.343 264.693 697.678 265.286 697.221C265.879 696.761 266.588 696.53 267.413 696.53C268.238 696.53 268.947 696.761 269.54 697.221C270.133 697.678 270.586 698.343 270.899 699.215C271.212 700.085 271.369 701.127 271.369 702.343C271.369 703.569 271.212 704.617 270.899 705.486C270.59 706.355 270.139 707.018 269.546 707.475C268.956 707.928 268.245 708.155 267.413 708.155ZM264.827 702.343C264.827 703.311 264.929 704.138 265.131 704.823C265.334 705.505 265.629 706.022 266.015 706.376C266.402 706.729 266.868 706.906 267.413 706.906C267.958 706.906 268.424 706.729 268.811 706.376C269.198 706.022 269.492 705.505 269.695 704.823C269.897 704.138 269.999 703.311 269.999 702.343C269.999 701.374 269.896 700.547 269.689 699.862C269.487 699.173 269.192 698.65 268.805 698.293C268.419 697.936 267.954 697.757 267.413 697.757C266.872 697.757 266.408 697.936 266.021 698.293C265.634 698.65 265.338 699.173 265.131 699.862C264.929 700.547 264.827 701.374 264.827 702.343ZM288.464 703.58H275.801V702.564H281.525V700.895H277.481V695.702H278.707V697.315H285.58V695.702H286.807V700.895H282.74V702.564H288.464V703.58ZM277.204 704.95H286.895V709.271H285.657V705.945H277.204V704.95ZM285.58 699.901V698.254H278.707V699.901H285.58ZM294.122 699.646C294.122 700.413 294.291 701.175 294.63 701.934C294.969 702.689 295.425 703.363 296 703.956C296.575 704.545 297.201 704.987 297.878 705.282L297.193 706.254C296.656 706.007 296.147 705.672 295.669 705.249C295.19 704.825 294.764 704.337 294.392 703.785C294.024 703.228 293.733 702.634 293.519 702C293.302 702.67 293.009 703.308 292.641 703.912C292.273 704.512 291.851 705.044 291.376 705.508C290.901 705.972 290.401 706.335 289.878 706.597L289.149 705.624C289.808 705.311 290.424 704.834 290.994 704.193C291.565 703.552 292.022 702.831 292.365 702.028C292.707 701.221 292.88 700.427 292.884 699.646V697.834H289.602V696.807H297.425V697.834H294.122V699.646ZM299.37 695.381H300.597V709.271H299.37V695.381ZM310.199 697.193V697.32C310.192 697.994 310.166 698.637 310.122 699.249C310.077 699.856 309.982 700.541 309.834 701.304L308.608 701.204C308.759 700.464 308.858 699.807 308.906 699.232C308.954 698.657 308.982 698.074 308.989 697.481H303.271V696.453H310.199V697.193ZM302.42 702.597C303.72 702.589 304.715 702.576 305.403 702.558V699.536H306.619V702.519C308.413 702.442 309.937 702.317 311.193 702.144L311.271 703.05C309.978 703.271 308.613 703.418 307.177 703.492C305.74 703.565 304.195 703.606 302.541 703.613L302.42 702.597ZM304.564 704.884H305.79V707.945H313.834V708.961H304.564V704.884ZM312.144 695.381H313.381V699.901H315.414V700.95H313.381V705.834H312.144V695.381ZM323.79 708.155C323.046 708.155 322.379 708.029 321.79 707.779C321.201 707.529 320.735 707.177 320.392 706.724C320.053 706.271 319.871 705.75 319.845 705.16H321.271C321.296 705.51 321.422 705.818 321.646 706.083C321.871 706.344 322.167 706.547 322.536 706.691C322.908 706.834 323.318 706.906 323.768 706.906C324.261 706.906 324.703 706.823 325.094 706.657C325.484 706.488 325.79 706.252 326.011 705.95C326.232 705.648 326.342 705.304 326.342 704.917C326.342 704.505 326.234 704.14 326.016 703.823C325.803 703.506 325.49 703.26 325.077 703.083C324.665 702.906 324.169 702.818 323.591 702.818H322.674V701.58H323.591C324.048 701.58 324.453 701.499 324.806 701.337C325.164 701.175 325.44 700.948 325.635 700.657C325.834 700.363 325.934 700.022 325.934 699.635C325.934 699.263 325.847 698.936 325.674 698.652C325.501 698.368 325.254 698.149 324.934 697.994C324.613 697.836 324.239 697.757 323.812 697.757C323.407 697.757 323.026 697.829 322.668 697.972C322.315 698.116 322.027 698.322 321.806 698.591C321.585 698.856 321.466 699.168 321.447 699.525H320.088C320.11 698.943 320.291 698.425 320.63 697.972C320.969 697.516 321.42 697.162 321.983 696.912C322.547 696.657 323.164 696.53 323.834 696.53C324.53 696.53 325.14 696.669 325.663 696.945C326.19 697.221 326.593 697.591 326.873 698.055C327.156 698.519 327.296 699.024 327.293 699.569C327.296 699.989 327.221 700.372 327.066 700.718C326.911 701.064 326.689 701.357 326.398 701.597C326.107 701.836 325.764 702.011 325.37 702.122V702.21C325.856 702.284 326.276 702.444 326.63 702.691C326.987 702.934 327.259 703.249 327.447 703.635C327.635 704.018 327.727 704.449 327.724 704.928C327.727 705.536 327.558 706.087 327.215 706.58C326.876 707.07 326.405 707.455 325.801 707.735C325.201 708.015 324.53 708.155 323.79 708.155ZM332.975 708.155C332.143 708.155 331.43 707.928 330.837 707.475C330.247 707.018 329.796 706.355 329.483 705.486C329.174 704.617 329.019 703.569 329.019 702.343C329.019 701.127 329.176 700.085 329.489 699.215C329.802 698.343 330.255 697.678 330.848 697.221C331.441 696.761 332.15 696.53 332.975 696.53C333.8 696.53 334.509 696.761 335.102 697.221C335.695 697.678 336.148 698.343 336.461 699.215C336.774 700.085 336.931 701.127 336.931 702.343C336.931 703.569 336.774 704.617 336.461 705.486C336.152 706.355 335.701 707.018 335.108 707.475C334.518 707.928 333.807 708.155 332.975 708.155ZM330.389 702.343C330.389 703.311 330.491 704.138 330.693 704.823C330.896 705.505 331.19 706.022 331.577 706.376C331.964 706.729 332.43 706.906 332.975 706.906C333.52 706.906 333.986 706.729 334.373 706.376C334.759 706.022 335.054 705.505 335.257 704.823C335.459 704.138 335.561 703.311 335.561 702.343C335.561 701.374 335.457 700.547 335.251 699.862C335.049 699.173 334.754 698.65 334.367 698.293C333.98 697.936 333.516 697.757 332.975 697.757C332.433 697.757 331.969 697.936 331.583 698.293C331.196 698.65 330.899 699.173 330.693 699.862C330.491 700.547 330.389 701.374 330.389 702.343ZM342.325 708H340.91V698.155H340.844L338.092 699.978V698.564L340.91 696.685H342.325V708ZM356.363 698.453H344.993V697.436H350.087V695.613H351.291V697.436H356.363V698.453ZM344.363 706.619H350.087V704.669C349.262 704.628 348.551 704.497 347.954 704.276C347.361 704.052 346.906 703.75 346.589 703.37C346.273 702.987 346.116 702.538 346.12 702.022C346.116 701.473 346.297 701.002 346.661 700.608C347.03 700.214 347.556 699.913 348.241 699.707C348.93 699.501 349.744 699.4 350.683 699.403C351.615 699.4 352.426 699.501 353.114 699.707C353.803 699.913 354.332 700.215 354.7 700.613C355.072 701.007 355.258 701.477 355.258 702.022C355.258 702.534 355.098 702.982 354.777 703.365C354.461 703.744 354.004 704.046 353.407 704.271C352.814 704.492 352.109 704.624 351.291 704.669V706.619H357.081V707.635H344.363V706.619ZM347.357 702.022C347.354 702.368 347.484 702.667 347.75 702.917C348.019 703.164 348.402 703.354 348.899 703.486C349.4 703.619 349.995 703.687 350.683 703.691C351.368 703.687 351.96 703.619 352.457 703.486C352.958 703.354 353.341 703.164 353.606 702.917C353.875 702.667 354.009 702.368 354.009 702.022C354.009 701.68 353.875 701.385 353.606 701.138C353.341 700.891 352.958 700.703 352.457 700.575C351.956 700.442 351.365 700.376 350.683 700.376C349.998 700.376 349.405 700.442 348.904 700.575C348.403 700.703 348.019 700.891 347.75 701.138C347.484 701.385 347.354 701.68 347.357 702.022Z" fill="#191516"/>
<path d="M99.7624 732.155C98.93 732.155 98.2173 731.928 97.6243 731.475C97.035 731.018 96.5838 730.355 96.2707 729.486C95.9613 728.617 95.8066 727.569 95.8066 726.343C95.8066 725.127 95.9632 724.085 96.2762 723.215C96.5893 722.343 97.0424 721.678 97.6354 721.221C98.2284 720.761 98.9374 720.53 99.7624 720.53C100.587 720.53 101.297 720.761 101.89 721.221C102.483 721.678 102.936 722.343 103.249 723.215C103.562 724.085 103.718 725.127 103.718 726.343C103.718 727.569 103.562 728.617 103.249 729.486C102.939 730.355 102.488 731.018 101.895 731.475C101.306 731.928 100.595 732.155 99.7624 732.155ZM97.1768 726.343C97.1768 727.311 97.2781 728.138 97.4807 728.823C97.6832 729.505 97.9779 730.022 98.3646 730.376C98.7514 730.729 99.2173 730.906 99.7624 730.906C100.308 730.906 100.773 730.729 101.16 730.376C101.547 730.022 101.842 729.505 102.044 728.823C102.247 728.138 102.348 727.311 102.348 726.343C102.348 725.374 102.245 724.547 102.039 723.862C101.836 723.173 101.541 722.65 101.155 722.293C100.768 721.936 100.304 721.757 99.7624 721.757C99.221 721.757 98.7569 721.936 98.3702 722.293C97.9834 722.65 97.6869 723.173 97.4807 723.862C97.2781 724.547 97.1768 725.374 97.1768 726.343ZM105.101 730.972L108.957 726.906C109.466 726.365 109.852 725.93 110.118 725.602C110.386 725.271 110.591 724.952 110.731 724.646C110.871 724.337 110.943 724.015 110.946 723.68C110.943 723.297 110.841 722.959 110.642 722.669C110.447 722.378 110.178 722.153 109.836 721.994C109.497 721.836 109.116 721.757 108.692 721.757C108.25 721.757 107.862 721.845 107.526 722.022C107.195 722.199 106.939 722.448 106.758 722.768C106.582 723.088 106.493 723.459 106.493 723.878H105.156C105.153 723.223 105.305 722.643 105.615 722.138C105.928 721.63 106.357 721.236 106.902 720.956C107.447 720.672 108.059 720.53 108.736 720.53C109.407 720.53 110.009 720.67 110.543 720.95C111.081 721.227 111.501 721.604 111.803 722.083C112.105 722.562 112.258 723.094 112.261 723.68C112.258 724.11 112.176 724.523 112.018 724.917C111.863 725.308 111.6 725.742 111.228 726.221C110.86 726.7 110.335 727.289 109.653 727.989L107.068 730.663V730.751H112.46V732H105.112L105.101 730.972ZM118.907 726.961H113.945V725.724H118.907V726.961ZM124.188 720.53C124.914 720.53 125.588 720.696 126.21 721.028C126.833 721.359 127.343 721.924 127.741 722.724C128.142 723.519 128.343 724.575 128.343 725.89C128.343 727.215 128.17 728.348 127.824 729.287C127.477 730.223 126.982 730.936 126.337 731.425C125.693 731.912 124.929 732.155 124.045 732.155C123.393 732.155 122.805 732.029 122.282 731.779C121.759 731.529 121.332 731.177 121 730.724C120.673 730.267 120.461 729.738 120.365 729.138H121.757C121.89 729.672 122.151 730.101 122.542 730.425C122.936 730.746 123.437 730.906 124.045 730.906C124.656 730.906 125.185 730.735 125.63 730.392C126.08 730.05 126.424 729.554 126.663 728.906C126.903 728.254 127.024 727.473 127.028 726.564H126.873C126.546 727.039 126.129 727.409 125.625 727.674C125.124 727.936 124.575 728.066 123.978 728.066C123.308 728.066 122.689 727.906 122.122 727.586C121.558 727.262 121.109 726.814 120.774 726.243C120.442 725.672 120.277 725.031 120.277 724.32C120.277 723.624 120.437 722.987 120.757 722.409C121.081 721.831 121.54 721.374 122.133 721.039C122.73 720.7 123.415 720.53 124.188 720.53ZM121.647 724.309C121.647 724.773 121.755 725.199 121.973 725.586C122.194 725.969 122.498 726.273 122.884 726.497C123.271 726.718 123.706 726.829 124.188 726.829C124.667 726.829 125.105 726.711 125.503 726.475C125.905 726.236 126.221 725.921 126.453 725.53C126.689 725.14 126.807 724.726 126.807 724.287C126.807 723.853 126.695 723.442 126.47 723.055C126.245 722.669 125.936 722.357 125.542 722.122C125.151 721.886 124.715 721.768 124.232 721.768C123.75 721.768 123.31 721.882 122.912 722.11C122.518 722.339 122.207 722.648 121.978 723.039C121.754 723.425 121.643 723.849 121.647 724.309ZM129.521 728.53L134.615 720.685H136.338V728.453H137.93V729.691H136.338V732H135.001V729.691H129.521V728.53ZM135.001 728.453V722.464H134.869L131.035 728.365V728.453H135.001ZM143.003 732.155C142.171 732.155 141.458 731.928 140.865 731.475C140.276 731.018 139.824 730.355 139.511 729.486C139.202 728.617 139.047 727.569 139.047 726.343C139.047 725.127 139.204 724.085 139.517 723.215C139.83 722.343 140.283 721.678 140.876 721.221C141.469 720.761 142.178 720.53 143.003 720.53C143.828 720.53 144.537 720.761 145.13 721.221C145.723 721.678 146.176 722.343 146.489 723.215C146.802 724.085 146.959 725.127 146.959 726.343C146.959 727.569 146.802 728.617 146.489 729.486C146.18 730.355 145.729 731.018 145.136 731.475C144.546 731.928 143.835 732.155 143.003 732.155ZM140.417 726.343C140.417 727.311 140.519 728.138 140.721 728.823C140.924 729.505 141.219 730.022 141.605 730.376C141.992 730.729 142.458 730.906 143.003 730.906C143.548 730.906 144.014 730.729 144.401 730.376C144.788 730.022 145.082 729.505 145.285 728.823C145.487 728.138 145.589 727.311 145.589 726.343C145.589 725.374 145.486 724.547 145.279 723.862C145.077 723.173 144.782 722.65 144.395 722.293C144.009 721.936 143.544 721.757 143.003 721.757C142.462 721.757 141.998 721.936 141.611 722.293C141.224 722.65 140.928 723.173 140.721 723.862C140.519 724.547 140.417 725.374 140.417 726.343ZM153.237 726.961H148.275V725.724H153.237V726.961ZM158.485 732.155C157.811 732.155 157.2 732.026 156.651 731.768C156.102 731.51 155.664 731.155 155.336 730.702C155.012 730.245 154.835 729.731 154.806 729.16H156.176C156.209 729.492 156.33 729.792 156.54 730.061C156.754 730.326 157.03 730.536 157.369 730.691C157.712 730.842 158.084 730.917 158.485 730.917C158.968 730.917 159.4 730.808 159.783 730.591C160.17 730.374 160.472 730.076 160.69 729.696C160.907 729.317 161.016 728.891 161.016 728.42C161.016 727.937 160.901 727.503 160.673 727.116C160.448 726.726 160.135 726.42 159.734 726.199C159.336 725.974 158.887 725.86 158.386 725.856C157.376 725.845 156.673 726.184 156.275 726.873H154.916L155.712 720.685H161.844V721.934H156.883L156.463 725.249H156.585C156.839 725.05 157.146 724.891 157.507 724.773C157.872 724.656 158.249 724.597 158.64 724.597C159.351 724.597 159.99 724.761 160.557 725.088C161.128 725.413 161.575 725.864 161.899 726.442C162.224 727.017 162.386 727.665 162.386 728.387C162.386 729.105 162.218 729.751 161.883 730.326C161.548 730.897 161.084 731.344 160.491 731.669C159.898 731.993 159.229 732.155 158.485 732.155ZM167.773 732.155C167.029 732.155 166.362 732.029 165.773 731.779C165.184 731.529 164.718 731.177 164.375 730.724C164.036 730.271 163.854 729.75 163.828 729.16H165.254C165.279 729.51 165.405 729.818 165.629 730.083C165.854 730.344 166.151 730.547 166.519 730.691C166.891 730.834 167.302 730.906 167.751 730.906C168.244 730.906 168.686 730.823 169.077 730.657C169.467 730.488 169.773 730.252 169.994 729.95C170.215 729.648 170.325 729.304 170.325 728.917C170.325 728.505 170.217 728.14 170 727.823C169.786 727.506 169.473 727.26 169.06 727.083C168.648 726.906 168.152 726.818 167.574 726.818H166.657V725.58H167.574C168.031 725.58 168.436 725.499 168.79 725.337C169.147 725.175 169.423 724.948 169.618 724.657C169.817 724.363 169.917 724.022 169.917 723.635C169.917 723.263 169.83 722.936 169.657 722.652C169.484 722.368 169.237 722.149 168.917 721.994C168.596 721.836 168.222 721.757 167.795 721.757C167.39 721.757 167.009 721.829 166.651 721.972C166.298 722.116 166.011 722.322 165.79 722.591C165.569 722.856 165.449 723.168 165.43 723.525H164.071C164.093 722.943 164.274 722.425 164.613 721.972C164.952 721.516 165.403 721.162 165.966 720.912C166.53 720.657 167.147 720.53 167.817 720.53C168.513 720.53 169.123 720.669 169.646 720.945C170.173 721.221 170.576 721.591 170.856 722.055C171.139 722.519 171.279 723.024 171.276 723.569C171.279 723.989 171.204 724.372 171.049 724.718C170.895 725.064 170.672 725.357 170.381 725.597C170.09 725.836 169.747 726.011 169.353 726.122V726.21C169.839 726.284 170.259 726.444 170.613 726.691C170.97 726.934 171.243 727.249 171.43 727.635C171.618 728.018 171.71 728.449 171.707 728.928C171.71 729.536 171.541 730.087 171.198 730.58C170.86 731.07 170.388 731.455 169.784 731.735C169.184 732.015 168.513 732.155 167.773 732.155ZM177.046 732.155C176.262 732.155 175.564 732.02 174.953 731.751C174.341 731.483 173.866 731.109 173.527 730.63C173.188 730.147 173.021 729.602 173.024 728.994C173.021 728.519 173.12 728.076 173.323 727.663C173.525 727.247 173.802 726.904 174.151 726.635C174.505 726.363 174.895 726.192 175.323 726.122V726.066C174.954 725.978 174.628 725.812 174.345 725.569C174.061 725.326 173.842 725.028 173.687 724.674C173.533 724.32 173.455 723.941 173.455 723.536C173.455 722.965 173.61 722.451 173.919 721.994C174.229 721.538 174.656 721.18 175.201 720.923C175.75 720.661 176.365 720.53 177.046 720.53C177.724 720.53 178.334 720.661 178.875 720.923C179.42 721.18 179.848 721.538 180.157 721.994C180.466 722.451 180.623 722.965 180.627 723.536C180.623 723.941 180.542 724.32 180.383 724.674C180.229 725.028 180.01 725.326 179.726 725.569C179.446 725.812 179.124 725.978 178.759 726.066V726.122C179.183 726.192 179.569 726.363 179.919 726.635C180.273 726.904 180.551 727.247 180.754 727.663C180.96 728.076 181.065 728.519 181.069 728.994C181.065 729.602 180.892 730.147 180.549 730.63C180.207 731.109 179.73 731.483 179.118 731.751C178.511 732.02 177.82 732.155 177.046 732.155ZM174.428 728.917C174.42 729.315 174.522 729.665 174.732 729.967C174.941 730.265 175.245 730.499 175.643 730.669C176.041 730.834 176.509 730.917 177.046 730.917C177.577 730.917 178.039 730.834 178.433 730.669C178.827 730.499 179.131 730.265 179.345 729.967C179.558 729.665 179.665 729.315 179.665 728.917C179.665 728.505 179.551 728.134 179.323 727.807C179.098 727.479 178.787 727.221 178.389 727.033C177.991 726.845 177.544 726.751 177.046 726.751C176.546 726.751 176.094 726.845 175.693 727.033C175.291 727.221 174.978 727.481 174.754 727.812C174.529 728.14 174.42 728.508 174.428 728.917ZM174.825 723.635C174.825 724.015 174.919 724.35 175.107 724.641C175.295 724.932 175.557 725.158 175.892 725.32C176.231 725.479 176.616 725.558 177.046 725.558C177.47 725.558 177.849 725.479 178.185 725.32C178.52 725.158 178.781 724.932 178.969 724.641C179.161 724.346 179.256 724.011 179.256 723.635C179.256 723.263 179.162 722.936 178.975 722.652C178.79 722.365 178.531 722.142 178.196 721.983C177.864 721.825 177.481 721.746 177.046 721.746C176.604 721.746 176.214 721.825 175.875 721.983C175.54 722.142 175.28 722.365 175.096 722.652C174.916 722.936 174.825 723.263 174.825 723.635ZM186.48 732H185.065V722.155H184.999L182.247 723.978V722.564L185.065 720.685H186.48V732Z" fill="#191516"/>
</svg>
